<svg xmlns="http://www.w3.org/2000/svg" width="16" height="16"><path d="M0 2v12h16V2H0zm1 1h8v1H1V3zm9 0h1v1h-1V3zm2 0h1v1h-1V3zm2 0h1v1h-1V3zM1 5h14v8H1V5zm8.045.777-2.984 6 .894.446 2.984-6-.894-.446zm-4.399.87L2.293 9l2.353 2.354.708-.708L3.707 9l1.647-1.646-.708-.708zm6.708 0-.708.707L12.293 9l-1.647 1.646.708.708L13.707 9l-2.353-2.354z" color="#000" font-family="sans-serif" font-weight="400" overflow="visible" style="line-height:normal;text-indent:0;text-align:start;text-decoration-line:none;text-decoration-style:solid;text-decoration-color:#000;text-transform:none;block-progression:tb;white-space:normal;isolation:auto;mix-blend-mode:normal;solid-color:#000;solid-opacity:1"/></svg>